# xmcd
#
# Track frame offsets:
#	150
#	22759
#	37825
#	55172
#	65292
#	80290
#
# Disc length: 1339 seconds
#
# Revision: 1
# Processed by: cddbd v1.5.2PL0 Copyright (c) Steve Scherf et al.
# Submitted via: audiograbber 1.83.01
#
DISCID=37053906
DTITLE=Dimorph - Obscurity
DYEAR=2008
DGENRE=Metal
TTITLE0=Among the Dead
TTITLE1=Reborn
TTITLE2=Obscurity
TTITLE3=War
TTITLE4=Slave of Lies
TTITLE5=A Deceptive Culture
EXTD=
EXTT0=
EXTT1=
EXTT2=
EXTT3=
EXTT4=
EXTT5=
PLAYORDER=
